<svg xmlns="http://www.w3.org/2000/svg" width="16" height="16" viewBox="0 0 280 140" fill="none">
<path d="M40 27V25H39V23H38V22H37V21H35V20H33V19H27V20H25V21H23V22H22V23H21V25H20V27H19V33H20V35H21V37H22V38H23V39H25V40H27V41H33V40H35V39H37V38H38V37H39V35H40V33H41V27H40ZM39 33H38V35H37V36H36V37H35V38H33V39H27V38H25V37H24V36H23V35H22V33H21V27H22V25H23V24H24V23H25V22H27V21H33V22H35V23H36V24H37V25H38V27H39V33Z" fill="currentColor"/><path fill-rule="evenodd" clip-rule="evenodd" d="M25 26H27.5V27.25H28.75V28.5H31.25V27.25H32.5V26H35V27.25H33.75V28.5H32.5V29.75H31.25V31H32.5V32.25H33.75V33.5H35V34.75H32.5V33.5H31.25V32.25H28.75V33.5H27.5V34.75H25V33.5H26.25V32.25H27.5V31H28.75V29.75H27.5V28.5H26.25V27.25H25V26Z" fill="currentColor"/><path d="M80.3636 28.0909V26.8182H79.7273V25.5455H79.0909V24.9091H78.4545V24.2727H77.1818V23.6364H75.9091V23H72.0909V23.6364H70.8182V24.2727H69.5455V24.9091H68.9091V25.5455H68.2727V26.8182H67.6364V28.0909H67V31.9091H67.6364V33.1818H68.2727V34.4545H68.9091V35.0909H69.5455V35.7273H70.8182V36.3636H72.0909V37H75.9091V36.3636H77.1818V35.7273H78.4545V35.0909H79.0909V34.4545H79.7273V33.1818H80.3636V31.9091H81V28.0909H80.3636ZM79.7273 31.9091H79.0909V33.1818H78.4545V33.8182H77.8182V34.4545H77.1818V35.0909H75.9091V35.7273H72.0909V35.0909H70.8182V34.4545H70.1818V33.8182H69.5455V33.1818H68.9091V31.9091H68.2727V28.0909H68.9091V26.8182H69.5455V26.1818H70.1818V25.5455H70.8182V24.9091H72.0909V24.2727H75.9091V24.9091H77.1818V25.5455H77.8182V26.1818H78.4545V26.8182H79.0909V28.0909H79.7273V31.9091Z" fill="currentColor"/><path fill-rule="evenodd" clip-rule="evenodd" d="M70.8181 27.4551H72.409V28.2505H73.2045V29.046H74.7954V28.2505H75.5908V27.4551H77.1818V28.2505H76.3863V29.046H75.5908V29.8414H74.7954V30.6369H75.5908V31.4324H76.3863V32.2278H77.1818V33.0233H75.5908V32.2278H74.7954V31.4324H73.2045V32.2278H72.409V33.0233H70.8181V32.2278H71.6136V31.4324H72.409V30.6369H73.2045V29.8414H72.409V29.046H71.6136V28.2505H70.8181V27.4551Z" fill="currentColor"/><path d="M117 28.5V27.5H116.5V26.5H116V26H115.5V25.5H114.5V25H113.5V24.5H110.5V25H109.5V25.5H108.5V26H108V26.5H107.5V27.5H107V28.5H106.5V31.5H107V32.5H107.5V33.5H108V34H108.5V34.5H109.5V35H110.5V35.5H113.5V35H114.5V34.5H115.5V34H116V33.5H116.5V32.5H117V31.5H117.5V28.5H117ZM116.5 31.5H116V32.5H115.5V33H115V33.5H114.5V34H113.5V34.5H110.5V34H109.5V33.5H109V33H108.5V32.5H108V31.5H107.5V28.5H108V27.5H108.5V27H109V26.5H109.5V26H110.5V25.5H113.5V26H114.5V26.5H115V27H115.5V27.5H116V28.5H116.5V31.5Z" fill="currentColor"/><path fill-rule="evenodd" clip-rule="evenodd" d="M109.5 28H110.75V28.625H111.375V29.25H112.625V28.625H113.25V28H114.5V28.625H113.875V29.25H113.25V29.875H112.625V30.5H113.25V31.125H113.875V31.75H114.5V32.375H113.25V31.75H112.625V31.125H111.375V31.75H110.75V32.375H109.5V31.75H110.125V31.125H110.75V30.5H111.375V29.875H110.75V29.25H110.125V28.625H109.5V28Z" fill="currentColor"/><path fill-rule="evenodd" clip-rule="evenodd" d="M39 65H40V67H41V73H40V75H39V77H38V78H37V79H35V80H33V81H27V80H25V79H23V78H22V77H21V75H20V73H19V67H20V65H21V63H22V62H23V61H25V60H27V59H33V60H35V61H37V62H38V63H39V65ZM27.5 66H25V67.25H26.25V68.5H27.5V69.75H28.75V71H27.5V72.25H26.25V73.5H25V74.75H27.5V73.5H28.75V72.25H31.25V73.5H32.5V74.75H35V73.5H33.75V72.25H32.5V71H31.25V69.75H32.5V68.5H33.75V67.25H35V66H32.5V67.25H31.25V68.5H28.75V67.25H27.5V66Z" fill="currentColor"/><path fill-rule="evenodd" clip-rule="evenodd" d="M79.7273 66.8182H80.3636V68.0909H81V71.9091H80.3636V73.1818H79.7273V74.4545H79.0909V75.0909H78.4545V75.7273H77.1818V76.3636H75.9091V77H72.0909V76.3636H70.8182V75.7273H69.5455V75.0909H68.9091V74.4545H68.2727V73.1818H67.6364V71.9091H67V68.0909H67.6364V66.8182H68.2727V65.5455H68.9091V64.9091H69.5455V64.2727H70.8182V63.6364H72.0909V63H75.9091V63.6364H77.1818V64.2727H78.4545V64.9091H79.0909V65.5455H79.7273V66.8182ZM72.4091 67.4545H70.8182V68.25H71.6136V69.0455H72.4091V69.8409H73.2045V70.6364H72.4091V71.4318H71.6136V72.2273H70.8182V73.0227H72.4091V72.2273H73.2045V71.4318H74.7955V72.2273H75.5909V73.0227H77.1818V72.2273H76.3864V71.4318H75.5909V70.6364H74.7955V69.8409H75.5909V69.0455H76.3864V68.25H77.1818V67.4545H75.5909V68.25H74.7955V69.0455H73.2045V68.25H72.4091V67.4545Z" fill="currentColor"/><path fill-rule="evenodd" clip-rule="evenodd" d="M116.5 67.5H117V68.5H117.5V71.5H117V72.5H116.5V73.5H116V74H115.5V74.5H114.5V75H113.5V75.5H110.5V75H109.5V74.5H108.5V74H108V73.5H107.5V72.5H107V71.5H106.5V68.5H107V67.5H107.5V66.5H108V66H108.5V65.5H109.5V65H110.5V64.5H113.5V65H114.5V65.5H115.5V66H116V66.5H116.5V67.5ZM110.75 68H109.5V68.625H110.125V69.25H110.75V69.875H111.375V70.5H110.75V71.125H110.125V71.75H109.5V72.375H110.75V71.75H111.375V71.125H112.625V71.75H113.25V72.375H114.5V71.75H113.875V71.125H113.25V70.5H112.625V69.875H113.25V69.25H113.875V68.625H114.5V68H113.25V68.625H112.625V69.25H111.375V68.625H110.75V68Z" fill="currentColor"/>
</svg>